<?xml version="1.0" encoding="UTF-8"?>
<svg width="117px" height="133px" viewBox="0 0 117 133" version="1.1" xmlns="http://www.w3.org/2000/svg" xmlns:xlink="http://www.w3.org/1999/xlink">
    <!-- Generator: Sketch 49.3 (51167) - http://www.bohemiancoding.com/sketch -->
    <title>C</title>
    <desc>Created with Sketch.</desc>
    <defs></defs>
    <g id="Icons" stroke="none" stroke-width="1" fill="none" fill-rule="evenodd">
        <g id="AppIcon-Any-Copy" transform="translate(-463.000000, -446.000000)" fill="#000000">
            <path d="M524.03575,578.102061 C486.945907,578.102061 463.654891,553.316904 463.654891,512.447764 C463.654891,471.490733 487.033797,446.881358 524.03575,446.881358 C554.797469,446.881358 576.858016,466.305186 579.318953,493.199717 L579.406844,493.990733 L553.567,493.990733 L553.215438,492.496592 C550.227157,478.521983 539.856063,469.381358 524.03575,469.381358 C503.733016,469.381358 490.725203,485.729014 490.725203,512.271983 C490.725203,539.078623 503.733016,555.602061 524.03575,555.602061 C539.328719,555.602061 550.051375,546.812998 553.47911,531.783701 L553.654891,530.904795 L579.494735,530.904795 L579.406844,531.871592 C576.945907,558.854014 554.709578,578.102061 524.03575,578.102061 Z" id="C"></path>
        </g>
    </g>
</svg>